# xmcd CD database file
#
# Track frame offsets:
#	150
#	17696
#	33762
#	46833
#	64897
#	81646
#	105334
#	122867
#	139104
#	160027
#	176894
#	196763
#	219356
#	233667
#	251277
#	267841
#	283348
#	300444
#
# Disc length: 4215 seconds
#
# Revision: 1
# Processed by: cddbd v1.5.2PL0 Copyright (c) Steve Scherf et al.
# Submitted via: CDex 1.51
#
DISCID=f1107512
DTITLE=Various Artist - MRH-109
DYEAR=1900
DGENRE=Blues
TTITLE0=Miley Cyrus - Wrecking Ball
TTITLE1=Jame's Arthur - You're Nobody 'Til You Love Somebody
TTITLE2=Artic Monkeys - Why'd You Only Call Me When You're High
TTITLE3=Katy Perry - Roar
TTITLE4=Lady Ga Ga - Applause
TTITLE5=Mumford and Sons - Hopeless Wanderer
TTITLE6=Rizzle Kicks - Lost Generation
TTITLE7=Lorde - Royals
TTITLE8=Daft Punk Ft Pharrell Williams - Lose Yourself To Dance
TTITLE9=Drake - Hold On We're Going Home
TTITLE10=Bastille - Things We Lost In The Fire
TTITLE11=Macklemore and Ryan Lewis Ft Mary Lambert - Same Love
TTITLE12=Jason Derulo Ft 2Chainz - Talk Dirty
TTITLE13=Klangkarussell - Sonnentanz
TTITLE14=You Me At Six - Lived A Lie
TTITLE15=Luke Bryan - That's My Kind Of Night
TTITLE16=John Newman - Cheating
TTITLE17=The 1975 - Sex
EXTD=
EXTT0=
EXTT1=
EXTT2=
EXTT3=
EXTT4=
EXTT5=
EXTT6=
EXTT7=
EXTT8=
EXTT9=
EXTT10=
EXTT11=
EXTT12=
EXTT13=
EXTT14=
EXTT15=
EXTT16=
EXTT17=
PLAYORDER=
